<svg width="32" height="32" viewBox="0 0 32 32" fill="none" xmlns="http://www.w3.org/2000/svg">
  <rect width="32" height="32" rx="8" fill="url(#gradient)"/>
  <path d="M16 8C19.866 8 23 11.134 23 15C23 18.866 19.866 22 16 22C12.134 22 9 18.866 9 15C9 11.134 12.134 8 16 8ZM16 10.5C13.5147 10.5 11.5 12.5147 11.5 15C11.5 17.4853 13.5147 19.5 16 19.5C18.4853 19.5 20.5 17.4853 20.5 15C20.5 12.5147 18.4853 10.5 16 10.5Z" fill="white"/>
  <path d="M16 13C17.1046 13 18 13.8954 18 15C18 16.1046 17.1046 17 16 17C14.8954 17 14 16.1046 14 15C14 13.8954 14.8954 13 16 13Z" fill="white"/>
  <text x="16" y="26" text-anchor="middle" fill="white" font-family="Arial, sans-serif" font-size="8" font-weight="bold">G</text>
  <defs>
    <linearGradient id="gradient" x1="0" y1="0" x2="32" y2="32" gradientUnits="userSpaceOnUse">
      <stop stop-color="#FACC15"/>
      <stop offset="1" stop-color="#EAB308"/>
    </linearGradient>
  </defs>
</svg>